<svg id="Outline" xmlns="http://www.w3.org/2000/svg" viewBox="0 0 512 512"><defs><style>.cls-1{fill:#f27405;}</style></defs><path class="cls-1" d="M448,135.81V104a8,8,0,0,0-8-8H410.42L378,74.41A32,32,0,1,0,328,48a8,8,0,0,0,16,0,16,16,0,1,1,16,16h0a8.07,8.07,0,0,0-4.44,1.34L309.58,96H242.42L210,74.41A32,32,0,1,0,160,48a8,8,0,0,0,16,0,16,16,0,1,1,16,16h0a8.07,8.07,0,0,0-4.44,1.34L141.58,96H105a39.94,39.94,0,0,0-38.8,30.3q-.09.38-.15.75L48.09,246.81A8,8,0,0,0,48,248V408a8,8,0,0,0,8,8h48a8,8,0,0,0,8-8v-8h48a8,8,0,0,0,8-8v-8h48v8a8,8,0,0,0,8,8h36l-4,87.64a8,8,0,0,0,7.63,8.35H456a8,8,0,0,0,8-8c0-.12,0-.24,0-.36Zm-14.59,31.32c-6.23-1.78-10.79-6.33-13.84-13.76a46.9,46.9,0,0,1-2.69-9.37h15.48ZM432,128H318.11l-.14-1q-.06-.37-.15-.75A39.9,39.9,0,0,0,311,112H432ZM360,81.61,381.58,96H338.42ZM262.67,112,259,136.06a14.78,14.78,0,0,1-26.47,6.58A55.89,55.89,0,0,0,247.43,112ZM152.8,112h78.4a40,40,0,0,1-78.39,0ZM192,81.61,213.58,96H170.42ZM136.57,112a55.9,55.9,0,0,0,14.94,30.64A14.79,14.79,0,0,1,125,136.06L121.32,112ZM152,384H112V232a8,8,0,0,0-16,0V400H64V248.6L81.79,129.83A24,24,0,0,1,105,112h.16l4.07,26.5a30.28,30.28,0,0,0,25.65,25.72,30.79,30.79,0,0,0,17.14-2.1Zm16-16V154.58a55.82,55.82,0,0,0,48,0V368Zm64-205.88a30.79,30.79,0,0,0,17.14,2.1,30.29,30.29,0,0,0,25.65-25.72l4.07-26.5H279a24,24,0,0,1,23.19,17.83L320,248.6V400H288V232a8,8,0,0,0-16,0V384H232ZM352,480H272.37l3-65.5A7.91,7.91,0,0,0,280,416h48a8,8,0,0,0,8-8V248a8,8,0,0,0-.09-1.19L320.51,144H352Zm16,0V144h32.67a66.13,66.13,0,0,0,3.9,15c5.67,14.16,16.05,22.74,29.58,24.63L447.63,480Z"/></svg>